<svg width="104" height="79" viewBox="0 0 104 79" fill="none" xmlns="http://www.w3.org/2000/svg">
<g filter="url(#filter0_d_10_21)">
<rect x="2" y="1" width="100" height="75" rx="10" fill="url(#paint0_linear_10_21)"/>
<path d="M33.8163 1.5L51.4949 17.1054M51.4949 17.1054L68.1633 1.5M51.4949 17.1054V27.6769H38.3622M2.5 27.6769H38.3622M38.3622 27.6769V50.3299H2.5H51.4949M101.5 50.3299H68.1633M68.1633 50.3299V27.6769H101.5M68.1633 50.3299H51.4949M51.4949 50.3299V60.398M51.4949 60.398L68.1633 75.5M51.4949 60.398L33.8163 75.5" stroke="url(#paint1_linear_10_21)" stroke-linecap="round"/>
</g>
<defs>
<filter id="filter0_d_10_21" x="0" y="-5.72205e-06" width="104" height="79" filterUnits="userSpaceOnUse" color-interpolation-filters="sRGB">
<feFlood flood-opacity="0" result="BackgroundImageFix"/>
<feColorMatrix in="SourceAlpha" type="matrix" values="0 0 0 0 0 0 0 0 0 0 0 0 0 0 0 0 0 0 127 0" result="hardAlpha"/>
<feOffset dy="1"/>
<feGaussianBlur stdDeviation="1"/>
<feComposite in2="hardAlpha" operator="out"/>
<feColorMatrix type="matrix" values="0 0 0 0 0 0 0 0 0 0 0 0 0 0 0 0 0 0 0.3 0"/>
<feBlend mode="normal" in2="BackgroundImageFix" result="effect1_dropShadow_10_21"/>
<feBlend mode="normal" in="SourceGraphic" in2="effect1_dropShadow_10_21" result="shape"/>
</filter>
<linearGradient id="paint0_linear_10_21" x1="4" y1="4.5" x2="101" y2="77.5" gradientUnits="userSpaceOnUse">
<stop stop-color="#BC9026"/>
<stop offset="0.357292" stop-color="#F3BA2F"/>
<stop offset="0.633333" stop-color="#F3BA2F"/>
<stop offset="1" stop-color="#AE8522"/>
</linearGradient>
<linearGradient id="paint1_linear_10_21" x1="2" y1="0.999997" x2="101" y2="65.5" gradientUnits="userSpaceOnUse">
<stop stop-color="#4A4A4A"/>
<stop offset="0.461458" stop-color="#7B7B7B"/>
<stop offset="1" stop-color="#404040"/>
</linearGradient>
</defs>
</svg>
