<svg width="38" height="50" viewBox="0 0 38 50" fill="none" xmlns="http://www.w3.org/2000/svg">
<path d="M29.3954 35L32.9304 31.5C32.0027 30.5852 31.2661 29.4952 30.7633 28.2933C30.2605 27.0914 30.0016 25.8016 30.0016 24.4988C30.0016 23.1959 30.2605 21.9061 30.7633 20.7042C31.2661 19.5023 32.0027 18.4123 32.9304 17.4975L29.3954 14C28.004 15.3718 26.8991 17.0065 26.145 18.809C25.3908 20.6116 25.0025 22.5461 25.0025 24.5C25.0025 26.454 25.3908 28.3884 26.145 30.191C26.8991 31.9935 28.004 33.6282 29.3954 35ZM22.3204 42L25.8554 38.5C24.0006 36.671 22.5277 34.4915 21.5224 32.0884C20.5171 29.6852 19.9994 27.1062 19.9994 24.5013C19.9994 21.8963 20.5171 19.3173 21.5224 16.9141C22.5277 14.511 24.0006 12.3315 25.8554 10.5025L22.3204 7C20.0017 9.28653 18.1605 12.0111 16.9038 15.0153C15.6471 18.0195 14.9999 21.2435 14.9999 24.5C14.9999 27.7565 15.6471 30.9805 16.9038 33.9847C18.1605 36.9889 20.0017 39.7135 22.3204 42ZM15.2504 49.0025L18.7854 45.5025C16.0025 42.7587 13.7927 39.4891 12.2844 35.8838C10.776 32.2785 9.99931 28.4094 9.99931 24.5013C9.99931 20.5932 10.776 16.724 12.2844 13.1187C13.7927 9.51342 16.0025 6.24384 18.7854 3.5L15.2504 3.36664e-06C12.0037 3.20111 9.42558 7.01558 7.66588 11.2217C5.90618 15.4279 5 19.9418 5 24.5013C5 29.0607 5.90618 33.5746 7.66588 37.7808C9.42558 41.9869 12.0037 45.8014 15.2504 49.0025Z" fill="url(#paint0_linear_10_24)" fill-opacity="0.8"/>
<defs>
<linearGradient id="paint0_linear_10_24" x1="8.00043" y1="10" x2="33.0004" y2="37" gradientUnits="userSpaceOnUse">
<stop stop-color="#CE9E28"/>
<stop offset="0.378125" stop-color="#F3BA2F"/>
<stop offset="0.638542" stop-color="#F3BA2F"/>
<stop offset="1" stop-color="#D6A42C"/>
</linearGradient>
</defs>
</svg>
