<svg width="50" height="50" viewBox="0 0 50 50" fill="none" xmlns="http://www.w3.org/2000/svg">
<path d="M34.6333 28.9792L40.2937 34.6375L24.975 49.9562L9.65833 34.6396L15.3187 28.9792L24.9771 38.6875L34.6333 28.9792ZM44.2937 19.3208L50 24.9792L44.3437 30.6375L38.6833 24.9792L44.2937 19.3208ZM24.9771 19.3208L30.6354 24.9292L24.975 30.5896L19.3167 24.9792L24.975 19.3229L24.9771 19.3208ZM5.65833 19.3208L11.2708 24.9792L5.6625 30.5875L0 24.9792L5.65833 19.3208ZM24.9792 0L40.2958 15.2708L34.6354 20.9271L24.9771 11.2687L15.3208 20.9771L9.66042 15.3187L24.9771 0.00208333L24.9792 0Z" fill="#F3BA2F"/>
</svg>
